<svg id="svg" version="1.1" xmlns="http://www.w3.org/2000/svg" xmlns:xlink="http://www.w3.org/1999/xlink" width="400" height="400" viewBox="0, 0, 400,400"><g id="svgg"><path id="path0" d="M210.404 39.548 C 206.836 40.573,206.928 45.205,210.601 49.396 C 212.757 51.855,212.568 52.043,209.216 50.769 C 199.121 46.933,194.603 53.758,203.863 58.856 C 207.561 60.892,207.771 61.423,205.002 61.748 C 201.065 62.211,198.072 64.094,196.913 66.837 C 196.088 68.790,196.641 68.911,202.034 67.955 C 207.285 67.024,224.695 66.600,228.103 67.320 C 231.548 68.048,230.995 59.413,227.071 51.200 C 223.870 44.500,214.929 38.249,210.404 39.548 M205.800 73.436 C 200.170 74.198,198.459 74.598,192.200 76.617 C 172.622 82.933,156.755 99.601,148.806 122.200 C 143.539 137.174,141.322 150.812,140.440 173.670 L 140.081 182.965 142.346 185.438 C 152.666 196.700,155.425 220.702,148.090 235.400 C 140.602 250.405,125.200 259.181,106.329 259.195 C 89.807 259.207,87.818 260.697,91.826 270.060 C 97.893 284.235,116.361 299.500,137.421 307.748 C 145.153 310.776,151.434 312.683,159.400 314.422 C 186.661 320.370,222.550 318.778,240.600 310.818 C 241.480 310.430,243.370 309.601,244.800 308.976 C 246.230 308.351,248.071 307.425,248.892 306.920 C 249.713 306.414,250.486 306.000,250.611 306.000 C 251.849 306.000,261.544 298.395,265.204 294.553 C 274.962 284.310,283.142 268.242,285.747 254.200 C 285.870 253.540,286.257 251.740,286.607 250.200 C 286.957 248.660,287.401 246.230,287.593 244.800 C 287.784 243.370,288.264 239.950,288.659 237.200 C 289.563 230.900,289.725 198.079,288.896 189.200 C 287.628 175.620,285.751 159.346,284.951 155.000 C 284.628 153.240,284.095 150.270,283.768 148.400 C 283.441 146.530,282.920 144.010,282.610 142.800 C 282.301 141.590,281.573 138.710,280.994 136.400 C 269.698 91.391,242.348 68.488,205.800 73.436 M205.124 137.610 C 207.439 139.022,208.198 142.014,206.816 144.281 C 204.750 147.669,200.005 147.491,198.177 143.956 C 195.993 139.732,201.042 135.121,205.124 137.610 M258.700 138.569 C 260.987 141.065,260.285 144.605,257.185 146.208 C 251.700 149.044,247.377 140.476,252.800 137.517 C 254.880 136.382,257.050 136.769,258.700 138.569 M237.529 156.651 C 245.807 160.050,246.593 161.133,242.700 163.779 C 228.983 173.101,230.138 172.839,223.000 168.249 C 211.081 160.586,211.064 160.850,223.800 155.716 C 229.916 153.251,229.115 153.196,237.529 156.651 M132.551 188.364 C 131.430 189.048,126.839 194.230,125.077 196.800 C 117.258 208.206,105.200 229.450,105.200 231.820 C 105.200 231.907,104.770 232.928,104.245 234.089 C 101.788 239.519,99.600 246.750,99.600 249.439 C 99.600 252.015,100.935 252.504,108.000 252.520 C 125.437 252.560,140.154 241.928,144.435 226.200 C 147.991 213.138,142.924 191.797,135.422 188.237 C 133.787 187.461,134.052 187.449,132.551 188.364 M295.839 190.736 C 295.725 190.921,295.825 194.926,296.061 199.636 C 296.812 214.634,296.086 233.906,294.375 244.400 C 293.961 246.936,293.778 247.932,292.773 253.110 C 292.147 256.339,292.201 256.365,295.767 254.603 C 309.885 247.628,313.635 232.019,306.531 209.800 C 303.662 200.829,296.973 188.902,295.839 190.736 " stroke="none" fill="#facb05" fill-rule="evenodd"></path><path id="path1" d="M208.834 33.066 C 205.496 33.782,201.200 38.836,201.200 42.047 C 201.200 42.598,200.640 43.068,199.300 43.643 C 193.518 46.121,191.137 51.266,193.143 56.945 L 193.971 59.291 193.017 60.545 C 191.448 62.608,190.100 65.671,189.815 67.819 C 189.470 70.417,189.378 70.534,187.000 71.409 C 168.395 78.251,152.192 95.416,143.854 117.118 C 141.373 123.577,141.052 124.576,139.038 132.100 C 136.357 142.114,133.662 165.689,133.604 179.636 C 133.601 180.486,133.317 180.765,132.025 181.192 C 123.348 184.055,103.947 214.840,95.341 239.400 C 94.015 243.183,93.536 245.546,93.245 249.732 L 93.000 253.265 90.857 254.018 C 69.711 261.447,96.470 298.423,133.800 313.358 C 135.340 313.974,136.960 314.632,137.400 314.820 C 139.801 315.848,148.739 318.578,153.137 319.626 C 160.615 321.408,161.230 321.540,163.246 321.797 C 165.666 322.106,166.195 322.569,167.133 325.200 C 167.565 326.410,168.669 329.470,169.587 332.000 C 170.505 334.530,171.522 337.410,171.848 338.400 C 172.174 339.390,172.589 340.560,172.770 341.000 C 174.863 346.073,174.936 346.000,167.796 346.000 C 162.268 346.000,161.600 346.274,161.600 348.540 C 161.600 351.626,163.216 352.467,169.814 352.813 C 179.268 353.309,183.644 355.704,188.941 363.283 C 191.863 367.464,193.585 368.170,195.969 366.164 C 198.269 364.230,196.821 360.383,191.966 355.528 C 189.406 352.968,189.145 353.085,197.494 353.039 C 202.710 353.010,204.866 352.854,205.600 352.450 C 208.442 350.887,209.122 349.026,207.571 347.054 L 206.742 346.000 196.997 346.000 C 183.434 346.000,183.735 346.168,180.193 336.600 C 179.379 334.400,178.111 330.980,177.376 329.000 C 175.343 323.522,175.284 323.763,178.600 324.000 C 184.961 324.454,210.612 324.199,215.000 323.637 C 222.624 322.661,221.506 321.700,225.188 332.400 C 226.766 336.986,226.818 336.942,219.487 337.200 L 213.800 337.400 213.800 338.956 C 213.800 341.897,215.443 342.700,222.845 343.380 C 226.258 343.693,229.579 344.163,230.225 344.425 C 235.161 346.425,237.472 348.299,240.400 352.677 C 244.050 358.134,244.980 358.755,247.533 357.435 C 250.890 355.698,250.076 352.647,244.688 346.774 C 241.752 343.575,242.010 343.109,246.400 343.679 C 255.513 344.860,261.200 343.114,261.200 339.135 C 261.200 337.077,261.654 337.151,249.242 337.187 C 235.242 337.229,236.152 337.602,233.791 330.855 C 233.279 329.395,232.307 326.764,231.631 325.009 C 230.160 321.196,230.141 320.951,231.300 320.693 C 233.065 320.299,239.405 318.341,240.592 317.823 C 241.256 317.533,242.790 316.896,244.000 316.408 C 261.277 309.439,275.342 296.311,283.736 279.319 C 285.984 274.769,289.600 265.663,289.600 264.554 C 289.600 263.769,291.047 262.800,292.218 262.800 C 300.649 262.800,312.549 251.164,315.443 240.091 C 320.110 222.238,308.026 185.956,296.359 182.792 L 294.918 182.401 294.442 178.101 C 294.180 175.735,293.777 172.090,293.547 170.000 C 292.940 164.485,291.284 152.560,290.770 150.000 C 290.527 148.790,290.151 146.900,289.935 145.800 C 282.215 106.533,264.205 79.732,239.400 70.599 C 236.378 69.486,236.452 69.632,236.694 65.236 C 237.658 47.733,222.431 30.149,208.834 33.066 M216.800 40.705 C 223.528 43.814,229.114 52.597,230.088 61.600 C 230.637 66.674,230.255 67.775,228.103 67.320 C 224.695 66.600,207.285 67.024,202.034 67.955 C 196.641 68.911,196.088 68.790,196.913 66.837 C 198.072 64.094,201.065 62.211,205.002 61.748 C 207.771 61.423,207.561 60.892,203.863 58.856 C 194.603 53.758,199.121 46.933,209.216 50.769 C 212.568 52.043,212.757 51.855,210.601 49.396 C 204.564 42.509,208.564 36.901,216.800 40.705 M224.000 73.411 C 251.865 77.368,271.673 99.260,280.994 136.400 C 281.573 138.710,282.301 141.590,282.610 142.800 C 282.920 144.010,283.441 146.530,283.768 148.400 C 284.095 150.270,284.628 153.240,284.951 155.000 C 285.751 159.346,287.628 175.620,288.896 189.200 C 289.725 198.079,289.563 230.900,288.659 237.200 C 288.264 239.950,287.784 243.370,287.593 244.800 C 287.401 246.230,286.957 248.660,286.607 250.200 C 286.257 251.740,285.870 253.540,285.747 254.200 C 283.142 268.242,274.962 284.310,265.204 294.553 C 261.544 298.395,251.849 306.000,250.611 306.000 C 250.486 306.000,249.713 306.414,248.892 306.920 C 248.071 307.425,246.230 308.351,244.800 308.976 C 243.370 309.601,241.480 310.430,240.600 310.818 C 230.204 315.403,214.486 317.976,196.782 317.991 C 162.092 318.022,134.004 309.987,112.400 293.853 C 96.590 282.046,85.484 263.828,92.066 260.499 C 93.673 259.686,98.988 259.200,106.329 259.195 C 137.145 259.172,156.964 235.754,151.458 205.871 C 149.930 197.577,146.575 190.052,142.346 185.438 L 140.081 182.965 140.440 173.670 C 141.201 153.949,142.991 141.041,146.661 128.800 C 155.373 99.742,171.239 82.723,196.600 75.230 C 204.067 73.024,215.793 72.246,224.000 73.411 M200.581 137.362 C 198.181 138.408,196.993 141.666,198.177 143.956 C 199.471 146.458,202.406 147.438,204.838 146.181 C 210.442 143.282,206.368 134.842,200.581 137.362 M252.800 137.517 C 247.377 140.476,251.700 149.044,257.185 146.208 C 259.031 145.253,260.000 143.715,260.000 141.740 C 260.000 138.079,256.034 135.753,252.800 137.517 M223.800 155.716 C 211.064 160.850,211.081 160.586,223.000 168.249 C 230.138 172.839,228.983 173.101,242.700 163.779 C 246.593 161.133,245.807 160.050,237.529 156.651 C 229.115 153.196,229.916 153.251,223.800 155.716 M135.422 188.237 C 142.924 191.797,147.991 213.138,144.435 226.200 C 140.154 241.928,125.437 252.560,108.000 252.520 C 100.935 252.504,99.600 252.015,99.600 249.439 C 99.600 246.750,101.788 239.519,104.245 234.089 C 104.770 232.928,105.200 231.907,105.200 231.820 C 105.200 229.450,117.258 208.206,125.077 196.800 C 126.839 194.230,131.430 189.048,132.551 188.364 C 134.052 187.449,133.787 187.461,135.422 188.237 M297.830 192.116 C 301.267 196.821,304.449 203.290,306.531 209.800 C 313.635 232.019,309.885 247.628,295.767 254.603 C 292.201 256.365,292.147 256.339,292.773 253.110 C 293.778 247.932,293.961 246.936,294.375 244.400 C 296.086 233.906,296.812 214.634,296.061 199.636 C 295.545 189.342,295.608 189.073,297.830 192.116 " stroke="none" fill="#3e3c30" fill-rule="evenodd"></path></g></svg>